<?xml version="1.0" standalone="no"?>
<!DOCTYPE svg PUBLIC "-//W3C//DTD SVG 20010904//EN"
 "http://www.w3.org/TR/2001/REC-SVG-20010904/DTD/svg10.dtd">
<svg version="1.0" xmlns="http://www.w3.org/2000/svg"
 width="564.000000pt" height="1003.000000pt" viewBox="0 0 564.000000 1003.000000"
 preserveAspectRatio="xMidYMid meet">
<metadata>
Created by potrace 1.16, written by Peter Selinger 2001-2019
</metadata>
<g transform="translate(0.000000,1003.000000) scale(0.100000,-0.100000)"
fill="#000000" stroke="none">
<path d="M0 9907 c0 -67 4 -137 9 -155 6 -20 6 -32 0 -32 -14 0 -11 -28 4 -33
9 -3 9 -7 0 -18 -8 -10 -12 -50 -12 -107 0 -92 0 -92 30 -107 16 -9 29 -22 29
-30 0 -8 5 -15 10 -15 6 0 10 -6 10 -13 0 -12 67 -57 84 -57 15 0 4 23 -21 45
-41 34 -20 43 24 9 21 -15 41 -33 45 -38 8 -12 -12 -27 -24 -20 -4 3 -8 1 -8
-5 0 -16 32 -29 62 -26 36 4 104 -44 110 -79 3 -15 2 -29 -3 -32 -4 -2 -5 -12
-2 -22 5 -15 3 -14 -18 3 -34 29 -48 48 -42 59 4 5 2 6 -4 3 -5 -3 -25 7 -44
22 -48 40 -216 141 -233 141 -14 0 -5 -98 9 -110 8 -7 15 -17 15 -22 0 -5 -7
-16 -15 -24 -24 -24 -18 -36 14 -29 38 8 48 -17 22 -59 l-20 -31 40 -1 c33 -1
37 0 23 11 -10 7 -15 19 -11 29 8 20 27 21 27 1 0 -9 6 -12 15 -9 9 4 15 0 15
-10 0 -9 -4 -16 -9 -16 -5 0 -12 -12 -16 -27 -3 -16 -16 -36 -28 -46 l-22 -18
23 3 c12 2 23 8 24 13 1 6 8 16 16 24 12 12 15 12 23 0 7 -12 9 -12 10 1 0 9
4 7 11 -8 9 -17 8 -26 -5 -40 -10 -10 -17 -27 -16 -38 0 -10 3 -13 6 -6 2 6
15 12 29 12 17 0 25 -7 30 -27 5 -17 3 -28 -5 -31 -6 -2 -16 -13 -22 -24 -9
-18 -8 -19 10 -13 12 4 21 2 21 -4 0 -6 7 -8 16 -4 14 5 16 2 10 -22 -4 -15
-14 -34 -21 -42 -8 -8 -15 -21 -15 -28 0 -8 -9 -19 -20 -25 -25 -13 -27 -33
-3 -26 10 3 27 -2 38 -10 28 -21 8 -50 -31 -46 -27 3 -27 2 -13 -15 26 -31 11
-59 -28 -54 -8 1 -10 -5 -6 -15 4 -10 -1 -22 -12 -30 -10 -7 -23 -24 -29 -36
-6 -13 -22 -24 -34 -26 -12 -2 -20 -7 -17 -12 3 -4 -6 -19 -20 -31 -30 -29
-43 -83 -25 -105 11 -12 15 -12 21 -2 13 19 11 28 -6 28 -8 0 -15 4 -15 9 0
16 30 33 46 27 13 -5 15 -2 10 18 -5 19 -1 26 13 31 23 7 51 -3 51 -19 0 -18
-21 -35 -36 -29 -10 3 -12 0 -9 -10 7 -18 -59 -92 -74 -82 -7 4 -11 -440 -11
-1404 0 -1124 2 -1410 12 -1414 10 -4 10 -6 1 -6 -9 -1 -13 -24 -13 -80 0 -70
2 -79 20 -84 11 -3 20 -1 20 4 0 14 54 33 58 20 2 -7 9 -5 19 4 16 16 38 21
29 6 -3 -5 1 -11 9 -15 8 -3 15 -1 15 4 0 6 9 10 19 10 11 0 22 6 24 13 4 9 8
8 16 -3 9 -13 11 -13 11 1 0 24 24 41 37 28 6 -6 17 -8 23 -4 9 6 9 10 -1 17
-10 6 -4 7 16 2 49 -11 123 -6 149 11 16 11 26 13 31 6 3 -6 12 -11 18 -11 7
0 6 4 -3 11 -12 8 -8 9 15 8 31 -2 85 15 85 27 0 4 -24 4 -54 0 -30 -3 -57 -2
-60 3 -3 5 9 20 27 33 32 25 80 39 147 42 19 1 51 10 70 20 22 11 63 19 108
21 40 1 76 6 79 9 4 3 18 6 32 6 15 0 35 6 46 13 24 16 98 39 140 44 17 2 45
11 63 21 32 16 34 16 48 -2 12 -18 15 -18 31 -4 10 9 42 19 70 23 29 4 55 11
59 16 3 5 21 9 40 9 20 0 43 4 53 10 11 6 57 6 122 1 115 -10 125 -12 153 -28
19 -10 19 -12 2 -29 -15 -14 -19 -15 -27 -3 -7 12 -9 12 -9 -1 0 -13 -27 -35
-82 -65 -22 -12 -23 -24 -2 -53 17 -25 49 -28 89 -10 20 9 31 9 45 0 21 -13
70 -1 70 17 0 6 6 8 13 5 24 -9 51 22 51 60 0 20 5 35 11 34 5 -1 20 4 33 11
23 12 89 8 122 -9 8 -4 32 -10 53 -14 35 -7 37 -5 37 19 0 15 15 41 36 65 20
22 65 95 101 162 l65 123 -6 78 -5 77 34 0 c18 0 36 4 39 8 3 5 12 50 20 101
16 102 23 116 64 124 21 4 33 16 47 46 15 33 23 41 45 41 20 0 33 10 51 38 14
21 32 36 41 34 8 -1 21 5 28 13 15 18 -1 20 -19 3 -11 -11 -12 -9 -8 7 20 71
26 105 24 140 -1 39 3 65 13 75 3 3 13 21 23 40 11 24 15 27 11 10 -4 -14 -9
-31 -11 -37 -3 -7 0 -13 6 -13 5 0 15 19 21 43 6 23 22 73 36 110 18 50 21 73
14 87 -10 18 -8 18 57 -1 51 -14 99 -19 190 -19 l123 0 0 -25 c0 -37 -39 -271
-55 -336 -8 -31 -15 -69 -15 -84 0 -14 -12 -67 -26 -117 l-26 -90 29 -30 c15
-16 67 -49 114 -74 125 -65 122 -62 114 -118 -4 -26 -13 -53 -20 -59 -23 -24
-26 -53 -8 -69 22 -19 97 -30 82 -12 -11 13 13 38 26 26 5 -4 5 -1 1 6 -4 6 0
19 8 28 19 18 21 34 5 34 -6 0 -8 7 -5 16 3 8 -1 26 -10 40 -15 22 -15 24 0
24 20 0 20 3 -4 42 -11 18 -20 43 -20 54 0 12 -7 27 -16 35 -12 10 -14 23 -9
58 3 25 7 62 9 82 5 52 12 59 56 55 22 -2 40 1 40 5 0 16 34 9 85 -16 54 -27
71 -30 79 -16 9 14 -5 42 -17 34 -6 -3 -7 -1 -3 5 4 7 -8 25 -28 43 -20 17
-36 40 -36 50 0 10 -4 19 -9 19 -18 0 3 46 46 103 24 31 40 57 36 57 -5 0 -31
-22 -58 -50 -27 -27 -53 -50 -57 -50 -11 0 -10 43 1 74 16 41 44 66 73 66 35
0 35 12 1 45 l-28 26 57 52 c69 63 98 110 98 160 0 44 -16 48 -32 10 -27 -63
-144 -144 -219 -151 -47 -4 -49 -3 -49 21 0 13 6 30 14 36 8 7 12 21 9 31 -4
14 0 20 10 20 8 0 23 3 32 7 14 5 16 2 10 -18 -7 -23 -7 -23 19 4 22 24 31 27
64 22 20 -3 45 -8 55 -11 21 -7 21 4 2 76 -9 33 -11 57 -5 60 5 3 10 39 11 80
1 41 5 83 10 92 7 12 4 23 -8 37 -37 40 -43 51 -43 71 0 11 -5 20 -11 20 -5 0
-8 4 -5 9 3 4 20 9 38 9 67 0 78 2 78 13 0 7 -27 9 -87 4 -96 -8 -117 -14 -87
-26 15 -6 14 -7 -8 -6 -16 1 -28 2 -28 3 0 1 6 19 13 40 27 77 29 94 10 94
-10 0 -74 16 -143 36 -114 33 -166 45 -257 60 -18 3 -33 10 -33 17 0 16 54
126 74 151 25 31 30 10 7 -27 -11 -19 -27 -52 -35 -75 -14 -39 -14 -40 10 -45
19 -3 24 -1 20 10 -17 44 -16 60 9 92 26 37 36 31 10 -6 -14 -20 -13 -21 6
-16 20 6 20 5 1 -28 -18 -34 -19 -59 -1 -59 5 0 10 17 10 38 1 23 3 28 6 15 2
-13 8 -23 13 -23 9 0 6 46 -5 81 -5 14 1 22 19 30 34 16 123 -15 106 -36 -9
-10 -7 -16 9 -24 25 -14 34 -14 26 -1 -3 6 -2 10 4 10 5 0 12 -6 15 -12 4 -10
8 -9 17 3 17 22 83 4 73 -20 -18 -41 -16 -69 5 -81 20 -10 21 -9 15 14 -5 21
-2 27 21 36 15 6 29 19 32 29 3 10 20 27 39 37 18 10 30 22 25 27 -15 15 0 53
29 72 16 11 27 22 24 26 -5 8 51 29 77 29 10 0 21 9 24 20 3 11 18 22 33 26
15 3 35 9 44 15 10 5 26 9 37 9 10 0 25 7 32 16 12 14 12 18 -1 26 -8 5 -33
20 -55 33 -37 22 -38 24 -15 25 126 4 142 6 153 20 7 9 20 14 30 12 9 -2 39 4
66 13 27 9 59 13 72 10 13 -3 54 3 91 14 l67 19 93 -40 c51 -22 102 -43 113
-48 11 -4 36 -15 55 -23 19 -8 64 -27 99 -42 35 -14 80 -37 101 -50 21 -13 51
-27 67 -31 15 -3 51 -17 78 -30 28 -13 84 -37 125 -55 41 -17 90 -38 108 -46
18 -9 43 -17 55 -18 35 -4 37 -5 37 -14 0 -5 -11 -23 -24 -39 -17 -19 -23 -36
-19 -50 3 -12 2 -30 -2 -39 -4 -10 -8 -27 -9 -38 -1 -20 -38 -42 -156 -92 -51
-21 -53 -23 -22 -23 37 0 38 -5 17 -75 -10 -32 -12 -51 -5 -53 5 -2 10 -10 10
-18 0 -9 4 -13 8 -10 18 11 54 -56 59 -112 4 -39 8 -50 13 -37 11 29 24 -145
15 -201 -5 -34 -4 -44 5 -39 8 5 10 2 7 -11 -3 -11 -9 -35 -12 -54 -4 -19 -12
-41 -18 -49 -10 -11 -13 -9 -18 10 -11 37 -10 69 1 69 6 0 8 -11 4 -25 -8 -33
4 -32 16 1 8 21 7 29 -6 39 -10 7 -14 17 -9 25 5 9 2 10 -14 5 -15 -4 -21 -2
-21 8 0 8 -7 20 -15 27 -9 7 -13 15 -10 18 3 3 0 11 -6 19 -24 28 5 11 32 -19
l28 -33 -2 32 c-1 17 -6 29 -11 25 -5 -3 -7 5 -3 17 4 18 2 21 -14 16 -11 -4
-19 -2 -19 4 0 6 6 11 13 11 6 0 4 5 -6 11 -26 15 -50 7 -52 -18 -1 -13 2 -23
6 -23 3 0 9 -9 12 -20 3 -11 2 -20 -3 -20 -4 0 -4 -16 0 -36 6 -25 3 -52 -8
-87 -10 -33 -16 -92 -16 -162 -1 -99 -4 -116 -29 -167 -16 -33 -33 -55 -40
-52 -7 2 -20 -13 -30 -36 -9 -22 -22 -39 -28 -38 -7 2 -15 -10 -20 -26 -4 -16
-12 -32 -18 -35 -5 -3 -20 -27 -34 -52 -13 -26 -36 -62 -51 -81 -14 -19 -26
-38 -26 -42 0 -7 -31 -38 -107 -107 -39 -36 -100 -63 -140 -62 -18 1 -36 -3
-39 -8 -3 -5 -16 -9 -30 -9 -13 0 -24 -4 -24 -9 0 -4 -33 -11 -72 -15 -111
-10 -184 -26 -167 -37 12 -8 12 -11 -1 -19 -8 -5 -23 -7 -34 -4 -12 4 -16 2
-12 -5 4 -6 1 -9 -7 -5 -8 3 -17 -2 -21 -11 -3 -9 -14 -15 -23 -13 -12 2 -18
-3 -17 -14 1 -11 -4 -14 -13 -11 -29 11 5 -33 103 -136 104 -108 102 -107 159
-59 20 17 25 17 100 -8 75 -23 126 -36 150 -35 24 0 101 34 141 63 67 48 78
44 188 -70 109 -113 94 -107 216 -75 90 24 91 24 111 -32 14 -39 22 -50 38
-48 16 2 21 -6 30 -50 70 -344 89 -443 86 -448 -6 -9 -108 -25 -525 -84 -58
-8 -144 -23 -192 -32 l-88 -17 -6 -36 c-3 -19 -12 -58 -20 -87 -20 -73 -19
-78 26 -110 51 -36 51 -56 -2 -146 -97 -167 -126 -205 -188 -247 -34 -23 -64
-39 -68 -36 -3 4 -5 32 -4 64 1 44 -1 50 -7 27 -4 -16 -8 -117 -10 -224 -1
-107 -4 -198 -7 -203 -3 -4 -7 -42 -9 -83 -3 -42 -9 -83 -14 -93 -5 -9 -9 -41
-10 -70 0 -30 -6 -72 -12 -95 -6 -23 -26 -114 -44 -202 -18 -88 -45 -212 -60
-275 -28 -123 -42 -173 -145 -530 -23 -80 -50 -174 -60 -210 -21 -74 -58 -270
-64 -345 -6 -68 -15 -123 -37 -237 -12 -63 -19 -140 -19 -225 -1 -70 -7 -207
-14 -303 -10 -135 -11 -204 -2 -305 6 -71 11 -209 11 -305 l0 -175 -47 -97
c-27 -52 -48 -102 -48 -109 0 -8 -12 -36 -26 -62 -14 -27 -23 -55 -20 -62 2
-7 -1 -32 -8 -56 -12 -38 -14 -41 -23 -24 -6 12 -8 42 -3 75 4 30 6 58 3 62
-2 4 -4 42 -4 84 l-1 78 -22 -70 c-41 -124 -56 -176 -57 -203 0 -14 -7 -42
-15 -61 l-14 -35 6 32 c3 19 1 34 -7 39 -8 4 -9 3 -5 -4 4 -7 4 -17 0 -24 -5
-8 -10 -6 -15 8 -7 17 -8 16 -9 -6 -1 -14 -2 -33 -1 -42 1 -10 -3 -18 -9 -18
-8 0 -10 13 -5 42 20 116 23 619 4 687 -15 56 -46 121 -58 121 -5 0 -14 -30
-20 -67 -7 -38 -27 -113 -46 -168 -46 -136 -78 -262 -72 -288 2 -12 1 -33 -3
-47 -8 -25 -8 -24 -10 5 -1 17 -5 39 -9 50 -8 20 -8 20 -15 -1 -4 -12 -8 -35
-11 -50 -2 -16 -11 -56 -20 -89 -9 -33 -17 -75 -18 -92 0 -18 -5 -33 -10 -33
-5 0 -7 -9 -4 -20 3 -12 -1 -25 -11 -33 -10 -6 -18 -20 -20 -29 -3 -17 66 -18
1253 -18 l1255 0 0 3946 c0 3754 -1 3946 -17 3939 -31 -13 -45 -10 -57 9 -9
15 -7 20 8 30 66 40 64 35 65 176 1 72 -2 129 -6 128 -4 0 -20 2 -34 6 -32 9
-53 44 -46 77 3 19 5 17 6 -8 1 -28 5 -33 25 -33 13 0 31 -3 40 -6 14 -5 16 6
16 86 0 78 -2 91 -15 86 -8 -3 -15 -1 -15 5 0 5 7 12 15 16 14 5 16 56 15 424
-2 385 -3 420 -19 431 -30 22 -33 36 -6 30 25 -4 25 -3 25 66 0 47 -4 72 -12
75 -10 4 -10 6 0 6 9 1 12 62 12 271 l0 270 -2820 0 -2820 0 0 -123z m3613 73
c-3 -12 -8 -19 -10 -16 -9 9 -41 -29 -66 -79 -39 -78 -97 -259 -103 -317 l-4
-53 24 60 c14 33 25 55 25 49 1 -6 27 -29 59 -50 66 -45 72 -51 72 -81 0 -16
-6 -23 -19 -23 -26 0 -37 -19 -20 -32 10 -7 8 -8 -10 -5 -16 4 -30 -2 -46 -19
l-24 -26 1 32 c1 40 -24 65 -67 65 -29 0 -38 -6 -57 -37 -26 -42 -63 -67 -78
-52 -6 6 0 22 19 44 l28 34 -79 91 c-44 49 -102 111 -129 138 l-49 47 22 30
c12 17 25 30 30 30 4 0 8 9 8 21 0 14 10 24 30 32 17 6 30 14 30 18 0 4 20 32
46 63 l45 56 164 0 c159 0 163 0 158 -20z m345 -32 c17 -29 32 -45 32 -36 0 9
-11 30 -25 46 -14 17 -25 33 -25 36 0 3 18 6 40 6 37 0 40 -2 41 -27 1 -16 1
-32 0 -36 -1 -5 4 -7 11 -4 7 2 11 11 9 18 -2 8 -6 22 -8 32 -5 16 35 17 751
17 l756 0 0 -137 c-1 -76 -5 -158 -11 -183 -6 -25 -10 -53 -10 -63 0 -9 -4
-15 -9 -12 -6 3 -8 0 -5 -7 9 -22 -37 -93 -112 -176 -40 -43 -80 -89 -90 -100
-12 -15 -36 -24 -73 -30 -51 -7 -55 -9 -56 -34 -1 -15 -6 -33 -12 -41 -6 -7
-9 -22 -6 -34 5 -16 -4 -27 -38 -51 -23 -16 -55 -44 -71 -61 -31 -36 -29 -35
-82 -16 -59 21 -119 18 -188 -9 -34 -14 -89 -32 -123 -40 -64 -16 -178 -61
-304 -118 -91 -42 -259 -102 -266 -95 -3 2 9 53 26 113 16 60 30 117 30 127 0
10 7 20 15 23 8 4 15 14 15 23 0 9 6 25 14 36 7 11 17 34 20 52 7 29 10 31 39
27 26 -4 46 4 109 45 130 86 185 169 153 230 -8 17 -22 31 -30 31 -8 0 -15 6
-15 14 0 21 -23 36 -40 26 -10 -6 -22 -2 -37 12 -25 24 -29 38 -11 38 22 0
148 133 148 156 0 26 -62 84 -90 84 -52 0 -93 -41 -115 -114 -17 -56 -61 -79
-135 -71 -58 7 -80 18 -80 42 0 8 5 11 13 7 6 -4 9 -3 4 1 -10 12 -47 17 -47
7 0 -4 7 -18 16 -30 16 -23 12 -58 -5 -47 -5 3 -11 -5 -13 -17 -2 -12 -9 -24
-17 -26 -11 -4 -13 6 -8 51 l6 56 -30 -21 c-16 -12 -27 -24 -24 -26 2 -3 11 1
19 7 13 11 15 5 14 -38 0 -27 2 -54 5 -58 3 -5 2 -15 -3 -23 -7 -11 -16 -9
-48 14 -92 63 -184 79 -252 41 -23 -12 -27 -11 -52 18 -33 36 -42 76 -43 176
0 54 4 76 14 79 16 5 32 21 90 90 l43 52 72 0 71 0 33 -52z m-312 -340 c13
-21 29 -38 34 -38 19 0 10 -37 -14 -59 -24 -23 -24 -23 -31 -2 -3 11 -25 35
-48 53 -91 70 -100 88 -67 138 8 13 11 12 24 -5 19 -27 32 -12 18 20 -17 38
-15 50 16 86 l27 33 8 -95 c7 -74 13 -102 33 -131z m245 -43 c54 -19 109 -61
109 -83 0 -9 13 -43 29 -75 l29 -58 -18 -47 c-10 -26 -24 -67 -30 -92 -7 -25
-26 -58 -44 -75 -27 -27 -41 -33 -98 -38 -72 -7 -123 -27 -148 -59 -68 -88
-90 -100 -90 -49 0 20 8 34 25 45 l25 16 -20 37 c-11 20 -17 47 -14 62 2 14 0
40 -6 56 l-10 30 5 -33 c4 -28 2 -33 -13 -30 -14 3 -17 15 -19 63 -1 42 1 51
6 30 6 -28 7 -29 19 -10 l11 20 1 -20 c1 -12 7 -4 15 20 18 50 18 55 1 55 -17
0 -14 46 4 80 9 18 8 20 -14 20 -23 0 -25 -2 -16 -25 6 -17 6 -25 -1 -25 -6 0
-8 -4 -5 -9 7 -11 -3 -41 -14 -41 -16 0 -18 28 -5 54 14 27 10 60 -6 50 -5 -3
-9 1 -9 9 0 8 19 22 43 31 24 9 54 30 66 47 42 56 111 72 192 44z m-1848 -144
l-10 -37 59 2 c32 0 58 -3 58 -9 0 -6 19 -7 48 -3 l47 6 1 -132 c0 -86 8 -184
23 -278 13 -80 23 -157 23 -172 1 -16 5 -29 9 -29 5 -1 13 -2 18 -3 21 -2 29
-20 56 -123 4 -14 2 -23 -5 -23 -7 0 -10 -6 -7 -13 3 -8 -22 -27 -69 -51 l-73
-38 -73 25 c-40 14 -108 31 -150 38 -43 6 -78 13 -78 14 0 17 43 160 49 164 5
4 11 15 14 26 5 19 5 19 12 -2 4 -12 12 -20 18 -17 8 3 12 40 13 107 1 83 0
94 -8 62 -20 -87 -26 -103 -21 -55 2 25 7 174 10 331 5 285 6 286 25 267 17
-17 18 -26 11 -57z m2272 -8 c12 -71 14 -68 -39 -68 -57 0 -76 -22 -24 -27 31
-3 33 -5 36 -47 l3 -44 -37 6 c-20 4 -70 22 -111 41 -70 34 -73 37 -67 63 9
38 13 43 32 43 9 1 53 16 97 35 44 18 85 34 92 34 7 1 15 -16 18 -36z m-3138
-14 c35 -6 63 -15 63 -20 0 -4 -26 -9 -57 -11 l-57 -3 -1 -35 c-1 -19 4 -39 9
-43 8 -6 7 -10 -1 -13 -21 -9 8 -31 34 -26 13 3 23 -1 23 -7 0 -7 -10 -11 -22
-9 -19 2 -23 -1 -20 -22 1 -14 7 -34 13 -46 12 -24 69 -47 93 -38 10 4 16 1
16 -9 0 -9 4 -19 10 -22 6 -3 7 1 4 9 -3 9 -2 16 4 16 6 0 12 -4 14 -9 2 -5
25 -5 58 0 89 15 286 15 303 0 12 -10 20 -10 36 1 12 7 21 17 21 22 0 5 9 -2
21 -15 15 -18 19 -31 14 -59 -7 -43 17 -86 35 -60 5 8 7 24 5 35 -3 11 -2 15
1 9 3 -7 14 -9 26 -6 18 4 19 2 10 -15 -15 -27 -86 -86 -90 -75 -5 17 -42 0
-42 -20 0 -14 -21 -29 -82 -58 -91 -43 -121 -51 -250 -66 -29 -3 -38 0 -38 11
0 22 -14 19 -42 -9 -34 -34 -129 -42 -155 -13 -10 10 -31 26 -48 35 -16 8 -47
28 -67 45 -22 17 -43 27 -52 24 -9 -4 -15 -3 -13 1 5 17 -126 116 -137 105 -4
-4 -23 -6 -42 -5 -26 2 -43 11 -61 32 -15 18 -34 30 -49 30 -13 0 -24 5 -24
10 0 6 12 8 28 5 l27 -5 -25 11 c-31 14 -59 25 -82 33 -10 3 -18 10 -18 16 0
12 17 14 24 2 2 -4 21 -9 42 -10 33 -3 36 -1 31 19 -5 18 -2 20 16 14 12 -4
38 -8 57 -10 l35 -4 -24 20 c-28 23 -22 36 9 19 12 -6 24 -10 26 -7 2 2 20
-11 39 -29 42 -39 135 -100 147 -96 5 1 7 -2 3 -8 -5 -9 49 -50 67 -50 4 0 3
11 -2 24 -5 13 -6 27 -2 32 4 4 2 4 -5 1 -6 -4 -18 -1 -26 7 -8 8 -18 12 -23
8 -4 -4 3 8 15 25 12 18 30 37 39 42 15 9 15 13 4 32 -10 15 -12 38 -7 79 7
60 -6 100 -32 100 -7 0 -13 5 -13 10 0 6 -4 10 -10 10 -5 0 -10 -7 -10 -15 0
-8 -4 -15 -10 -15 -5 0 -7 7 -4 15 5 12 -2 14 -42 9 -47 -5 -48 -5 -24 10 14
8 50 17 81 21 30 4 62 11 70 16 19 12 59 11 136 -2z m2117 -266 c-3 -33 12
-63 32 -63 9 0 28 9 44 20 l27 19 11 -97 12 -97 -30 -28 c-33 -31 -38 -58 -14
-81 17 -18 69 -22 79 -6 4 6 10 8 15 5 4 -3 -7 -20 -26 -39 -21 -21 -34 -44
-34 -60 0 -14 -4 -26 -10 -26 -11 0 -142 69 -220 116 -63 37 -136 109 -174
171 -31 51 -31 52 -6 50 11 -1 20 -6 20 -11 0 -5 6 -1 14 10 12 15 17 17 27 7
21 -21 29 -15 29 18 0 26 3 30 18 24 21 -9 42 -13 63 -14 9 -1 20 -15 25 -33
14 -47 34 -49 23 -1 -12 52 -12 53 10 53 13 0 21 9 26 30 6 25 28 60 39 60 2
0 2 -12 0 -27z m602 -198 c43 -56 44 -60 27 -73 -49 -37 -51 -36 -80 23 -27
54 -43 69 -43 41 0 -8 10 -31 21 -51 34 -57 10 -65 -34 -11 -35 42 -37 49 -37
115 0 56 3 72 18 80 19 11 45 -13 128 -124z m54 107 c0 -9 9 -35 21 -56 17
-31 18 -43 10 -69 -6 -16 -11 -55 -11 -86 0 -31 -4 -61 -8 -68 -11 -17 -79 -9
-102 12 -24 21 -26 37 -5 29 22 -9 105 47 105 71 0 11 -18 44 -40 73 -22 29
-40 56 -40 61 0 11 49 51 61 51 5 0 9 -8 9 -18z m1413 -234 c-3 -7 -1 -8 5 -4
17 11 14 -5 -5 -26 -9 -10 -28 -18 -42 -19 -24 0 -24 -1 -6 -9 17 -7 17 -9 3
-9 -22 -1 -24 -31 -3 -31 9 0 20 -12 26 -26 5 -15 12 -24 15 -21 7 7 44 -29
44 -43 0 -5 -13 -19 -30 -32 -16 -12 -30 -27 -30 -34 0 -6 -8 -22 -18 -34 -16
-20 -21 -21 -40 -9 -12 8 -22 19 -22 25 0 7 -10 14 -21 17 -14 4 -20 11 -16
21 4 10 -3 17 -26 21 -40 9 -57 22 -57 46 0 11 -4 19 -10 19 -5 0 -10 15 -9
33 0 17 3 26 6 19 4 -10 8 -9 19 5 13 17 13 17 14 1 0 -10 7 -18 15 -18 8 0
15 -9 15 -21 0 -11 4 -18 9 -15 13 8 20 -41 8 -53 -11 -11 14 -16 56 -12 9 1
20 -5 23 -14 5 -11 10 -13 19 -5 6 5 15 6 20 2 4 -4 4 9 0 28 -4 19 -14 39
-21 43 -8 4 -14 19 -14 33 0 14 -4 23 -9 19 -20 -12 -61 18 -67 50 -12 67 7
102 39 70 9 -8 22 -15 30 -15 8 0 20 -7 27 -15 7 -8 16 -15 21 -15 5 0 6 7 3
15 -4 8 -1 15 6 15 10 0 9 4 -1 16 -10 13 -10 17 2 24 10 7 16 3 21 -11 5 -12
5 -26 1 -31z m-4136 -55 c-11 -3 -16 -11 -13 -26 13 -60 17 -139 8 -133 -6 3
-14 1 -18 -5 -4 -7 -3 -9 4 -5 7 4 15 -8 21 -31 14 -47 14 -90 1 -98 -14 -9 0
-37 16 -31 8 3 14 1 14 -4 0 -6 12 -10 28 -11 l27 0 -32 -16 c-18 -9 -33 -20
-33 -25 0 -4 -11 -8 -25 -8 -16 0 -25 6 -25 15 0 8 -7 15 -15 15 -8 0 -15 5
-15 10 0 6 7 10 16 10 12 0 14 8 9 43 -3 23 -8 53 -9 67 -9 65 -19 110 -26
110 -5 0 -8 21 -7 47 2 41 -1 49 -20 58 -40 17 -25 25 45 24 37 -1 59 -3 49
-6z m63 -499 c0 -8 6 -14 14 -14 18 0 29 -27 13 -34 -8 -3 -6 -5 3 -5 12 -1
14 -11 11 -47 -2 -25 2 -51 8 -57 6 -6 11 -20 11 -30 0 -14 5 -18 19 -14 14 3
21 -2 26 -20 3 -14 4 -28 0 -31 -3 -3 -5 2 -5 12 0 9 -4 15 -9 12 -15 -9 -1
-45 15 -39 8 3 14 0 14 -6 0 -6 -4 -11 -10 -11 -5 0 -10 -10 -11 -22 0 -13 -3
-17 -6 -10 -12 29 -19 8 -13 -35 4 -26 5 -54 2 -62 -3 -9 -1 -12 6 -7 7 4 13
0 14 -11 0 -10 2 -25 3 -33 0 -8 -5 -33 -12 -54 -12 -37 -14 -115 -3 -126 3
-3 16 -26 28 -51 l24 -46 -31 -50 c-17 -28 -31 -55 -31 -62 0 -6 -7 -11 -15
-11 -8 0 -15 5 -15 12 0 9 -3 9 -11 1 -12 -12 -20 -8 -59 31 -11 11 -20 16
-20 10 0 -5 -5 -1 -11 9 -5 9 -15 17 -22 17 -10 1 -77 55 -77 63 0 1 9 3 19 3
11 0 17 -4 14 -9 -3 -5 1 -13 8 -18 19 -11 30 20 16 46 -6 11 -12 25 -13 32
-1 6 -7 19 -13 30 -9 15 -10 13 -11 -14 0 -18 -5 -33 -11 -33 -14 0 -5 168 9
182 5 5 17 0 27 -12 10 -11 26 -20 35 -20 25 0 34 77 13 109 -13 20 -13 23 -1
18 20 -7 11 43 -10 59 -11 8 -13 21 -9 49 5 32 4 35 -6 20 -11 -15 -13 -12
-13 18 0 20 4 33 10 30 5 -4 6 -1 2 6 -5 7 -2 18 7 24 19 16 28 45 17 52 -6 4
-10 -1 -10 -10 0 -9 -4 -14 -10 -10 -5 3 -7 12 -4 19 3 8 1 17 -5 21 -18 10
-13 22 12 29 20 5 23 11 22 58 0 34 4 53 12 53 6 0 15 3 19 7 10 10 24 0 24
-18z m1033 -414 c18 -22 54 -25 105 -10 33 9 34 8 52 -33 15 -33 19 -73 22
-185 l3 -142 -65 -22 c-94 -32 -285 -32 -385 -1 -106 33 -107 35 -113 141 -5
112 -2 127 43 180 l37 42 80 0 c74 0 82 2 100 25 25 33 95 36 121 5z m-33
-575 c7 -8 21 -15 32 -15 11 0 22 -9 25 -20 6 -23 57 -28 70 -7 4 8 21 17 36
21 24 6 28 4 25 -11 -2 -11 -14 -19 -31 -21 -22 -3 -27 -9 -28 -30 -1 -15 -1
-31 0 -36 1 -4 2 -28 3 -52 1 -77 18 -47 18 32 0 63 2 73 13 62 8 -7 14 -20
14 -28 2 -31 12 -86 21 -109 19 -51 -6 -93 -56 -95 -25 -1 -27 -4 -24 -39 l4
-39 -56 4 c-43 3 -62 10 -86 32 -18 15 -35 25 -38 21 -4 -4 7 -18 23 -31 17
-13 25 -24 19 -24 -6 0 -19 9 -29 20 -10 11 -22 17 -26 14 -15 -9 -10 13 6 26
8 7 15 20 15 29 0 9 9 30 20 46 11 17 20 41 20 54 0 21 -2 22 -17 10 -15 -13
-15 -12 -5 7 6 11 7 26 3 33 -6 10 -9 9 -14 -2 -9 -23 -46 -9 -53 20 -4 15
-12 22 -20 19 -9 -3 -14 1 -14 12 0 15 95 110 111 112 4 0 12 -7 19 -15z
m-624 -214 c0 -3 6 -19 12 -34 7 -16 12 -36 12 -45 0 -15 2 -15 10 -2 8 13 10
13 10 -2 0 -9 3 -25 6 -35 5 -15 4 -15 -5 -3 -9 12 -11 10 -11 -13 0 -16 4
-26 8 -23 5 3 14 -10 19 -29 7 -23 8 -35 1 -37 -6 -2 1 -28 16 -61 14 -32 26
-59 26 -61 0 -3 -38 9 -85 26 l-86 31 -27 -31 c-24 -27 -35 -31 -101 -37 -41
-3 -79 -9 -84 -12 -5 -3 -46 -9 -91 -13 -44 -4 -135 -15 -201 -23 -218 -28
-241 -29 -257 -13 -15 15 -35 217 -23 236 3 4 36 11 73 15 37 3 98 13 136 21
38 8 115 17 170 20 108 5 216 23 216 36 0 4 7 5 15 2 8 -3 49 8 92 25 43 16
86 32 96 35 11 4 17 16 17 36 0 30 1 31 18 14 9 -10 17 -20 18 -23z m1860
-157 c-53 -53 -96 -102 -96 -108 0 -7 -3 -6 -8 2 -14 21 -42 -46 -51 -123 l-8
-70 -3 80 c-1 44 -4 97 -5 118 -3 25 1 41 12 50 8 6 26 22 40 35 28 25 181
110 202 111 8 1 -30 -42 -83 -95z m-1176 -33 c36 -10 73 -17 83 -15 9 1 17 -4
17 -12 0 -8 11 -14 28 -15 l27 -1 -25 -8 c-16 -5 -19 -8 -8 -9 26 -2 31 -18
10 -39 -19 -19 -19 -19 4 -19 14 0 24 5 24 13 0 8 5 14 10 14 6 0 10 -7 10
-15 0 -9 6 -12 17 -8 11 4 14 3 9 -5 -4 -7 -16 -12 -27 -12 -10 0 -19 -4 -19
-10 0 -5 5 -10 10 -10 14 0 12 -13 -4 -35 -11 -15 -17 -17 -27 -8 -8 6 -32 14
-54 18 l-40 6 33 -17 c34 -17 52 -58 34 -76 -15 -15 -34 0 -27 22 7 21 -10 36
-20 20 -9 -14 -63 58 -68 89 -2 12 -9 27 -15 33 -9 9 -12 5 -12 -19 0 -17 5
-33 12 -35 7 -3 6 -7 -5 -11 -17 -6 -18 -3 -21 79 -1 11 -6 27 -12 35 -16 21
-25 49 -18 60 6 11 -2 12 74 -10z m-842 -205 c20 -15 41 -73 49 -133 4 -35 9
-50 14 -41 7 10 9 9 9 -4 0 -9 3 -24 7 -34 5 -13 3 -15 -8 -9 -11 6 -12 5 -1
-6 6 -7 12 -23 12 -36 0 -13 5 -23 10 -23 6 0 10 -9 10 -21 0 -11 -5 -17 -10
-14 -7 4 -9 -14 -7 -50 2 -40 0 -58 -9 -62 -20 -8 -124 26 -131 42 -3 8 -9 12
-14 9 -5 -3 -9 2 -9 10 0 9 5 16 10 16 6 0 10 7 10 15 0 8 -4 15 -9 15 -17 0
-29 56 -21 101 5 26 4 49 -1 56 -6 6 -7 22 -4 36 4 14 2 35 -5 46 -7 14 -7 21
0 21 5 0 10 7 10 16 0 8 4 12 10 9 6 -3 7 1 4 9 -3 9 -11 16 -17 16 -6 0 -2 7
9 15 21 16 61 17 82 1z m2848 -4648 c54 -57 119 -124 143 -151 l44 -47 -99
-100 c-97 -99 -140 -126 -174 -109 -18 9 -171 163 -182 183 -5 9 7 60 29 128
31 92 45 121 78 155 22 23 45 42 51 42 5 1 55 -45 110 -101z"/>
<path d="M4318 7309 c-4 -23 -1 -29 14 -29 11 0 16 -5 13 -10 -3 -6 14 -19 38
-29 53 -23 113 -85 144 -149 26 -53 28 -62 12 -62 -6 0 -9 7 -5 15 3 8 1 15
-5 15 -6 0 -25 15 -42 33 -57 58 -101 85 -165 102 -112 29 -235 13 -292 -37
-17 -14 -32 -23 -34 -19 -10 16 14 35 126 93 20 10 67 24 105 30 37 5 70 12
71 13 2 2 -40 1 -95 -2 -80 -5 -105 -11 -136 -30 -81 -51 -148 -127 -146 -165
0 -7 4 -4 9 7 9 20 9 20 9 0 1 -11 -8 -26 -19 -33 -17 -10 -20 -21 -17 -52 5
-51 -10 -52 -18 -2 -13 74 -14 76 -35 52 -10 -12 -16 -28 -13 -37 3 -8 0 -19
-8 -24 -12 -7 -12 -12 -1 -30 11 -17 11 -23 2 -29 -28 -17 63 -110 107 -110
23 0 25 3 19 35 l-7 34 28 -14 c15 -8 48 -15 73 -15 39 0 47 4 58 27 6 15 12
35 12 46 0 16 5 18 38 13 20 -3 64 -9 97 -12 86 -10 99 -12 105 -14 3 -1 19
-1 36 0 29 1 32 -2 33 -27 1 -69 1 -70 12 -50 12 21 41 23 33 2 -5 -12 2 -15
31 -15 21 0 34 -4 30 -10 -3 -5 1 -10 10 -10 9 0 18 12 22 30 3 17 12 30 19
30 8 0 14 7 14 15 0 21 -23 69 -37 78 -16 10 -17 57 -2 57 6 0 18 -18 26 -40
9 -22 20 -40 25 -40 19 0 13 148 -8 188 -7 15 -14 32 -14 38 0 16 -78 92 -124
122 -23 14 -64 31 -93 38 l-51 12 -4 -29z"/>
<path d="M2893 6693 c-18 -2 -33 -8 -33 -13 0 -5 15 -6 34 -3 32 5 96 -20 96
-38 0 -11 -29 -19 -47 -12 -10 4 -14 2 -10 -4 4 -6 0 -14 -9 -17 -21 -8 -64
19 -64 39 0 20 -16 19 -24 -1 -8 -22 -8 -24 8 -24 7 0 19 -7 27 -16 21 -26 65
-44 128 -52 40 -6 64 -5 72 2 8 8 10 5 5 -14 -6 -21 -5 -22 4 -7 6 9 8 27 5
38 -5 15 -4 19 4 15 6 -4 11 -1 11 7 0 12 -10 14 -45 10 -40 -4 -45 -2 -45 16
0 14 5 19 15 15 8 -4 15 -2 15 3 0 5 8 9 18 9 9 -1 17 4 17 9 0 6 -6 9 -12 9
-7 -1 -13 2 -13 6 0 4 -23 10 -50 14 -28 4 -56 8 -63 10 -6 1 -27 1 -44 -1z"/>
<path d="M4640 6481 c-50 -23 -94 -54 -132 -92 -62 -61 -66 -70 -43 -89 11 -9
15 -9 15 -1 0 7 4 10 9 7 5 -3 24 2 42 11 19 10 41 17 49 18 8 0 15 9 15 20 0
11 4 26 8 33 5 7 3 12 -4 12 -7 0 -5 8 6 20 19 21 60 27 70 10 4 -6 15 -8 26
-5 10 4 19 2 19 -4 0 -6 7 -8 15 -5 8 4 13 10 10 15 -3 4 0 17 6 27 15 24 7
48 -18 54 -10 3 -52 -11 -93 -31z"/>
<path d="M2937 6292 c-15 -9 -27 -20 -27 -24 0 -13 12 -9 24 8 11 14 17 13 59
-13 25 -15 47 -32 47 -36 0 -5 -15 1 -34 12 -28 18 -35 19 -39 7 -4 -10 -1
-13 9 -9 8 3 14 -1 14 -10 0 -19 43 -36 116 -47 66 -9 76 -6 67 17 -5 14 -2
14 25 -3 18 -10 32 -21 32 -25 0 -4 12 -14 26 -24 24 -16 25 -16 15 2 -5 10
-20 32 -33 48 -20 27 -29 31 -76 32 -58 1 -102 15 -147 48 -47 34 -49 34 -78
17z"/>
<path d="M3366 5684 c27 -32 59 -70 72 -84 13 -14 64 -79 114 -145 50 -66 95
-122 100 -123 5 -2 7 7 4 20 -7 35 -17 58 -27 58 -5 0 -9 5 -9 11 0 13 -59 90
-77 102 -7 4 -13 13 -13 20 0 7 -24 39 -53 73 -29 33 -62 73 -74 88 -12 15
-27 25 -32 21 -6 -3 -21 -1 -33 6 -14 8 -4 -9 28 -47z"/>
<path d="M1335 5538 c-281 -19 -512 -48 -625 -78 -22 -6 -45 -8 -50 -5 -6 3
-10 1 -10 -4 0 -6 -12 -11 -26 -11 -14 0 -34 -5 -46 -11 -17 -9 -64 -17 -118
-18 -8 -1 -26 -11 -40 -24 -29 -27 -81 -47 -120 -47 -14 0 -36 -9 -48 -21 -13
-11 -42 -29 -66 -40 -45 -19 -74 -17 -89 8 -6 9 -13 10 -26 3 -10 -5 -21 -6
-25 -3 -3 3 -6 2 -6 -4 0 -12 38 -30 85 -39 33 -6 35 -8 20 -24 -9 -9 -34 -25
-55 -35 -32 -15 -45 -16 -65 -7 l-25 12 0 -1811 0 -1811 37 30 c54 42 103 66
114 55 6 -6 10 -30 10 -54 1 -59 -52 -169 -82 -169 -17 0 -18 -3 -9 -20 9 -16
4 -33 -22 -85 -17 -36 -35 -65 -40 -65 -4 0 -8 -186 -8 -414 0 -355 2 -415 15
-426 19 -16 19 -30 0 -30 -13 0 -15 -28 -15 -195 l1 -195 1131 0 1130 0 -5 21
c-4 15 -2 19 10 15 9 -4 13 -1 10 6 -2 7 -14 13 -26 12 -17 -1 -21 4 -17 19 2
10 2 16 -2 13 -3 -4 -20 22 -37 57 -37 80 -43 162 -10 162 16 0 20 -6 17 -33
-1 -17 2 -32 8 -32 5 0 10 -5 10 -12 0 -9 -3 -9 -12 0 -14 14 -28 16 -28 3 0
-8 53 -34 65 -32 3 1 14 -8 25 -19 11 -11 27 -20 36 -20 14 0 14 -3 4 -15 -9
-11 -10 -15 -1 -15 7 0 19 -7 27 -15 9 -8 24 -15 35 -15 11 0 19 -7 19 -16 0
-8 4 -13 9 -9 5 3 12 1 15 -4 3 -5 -1 -11 -9 -15 -8 -3 -15 -13 -15 -21 0 -9
4 -14 9 -11 5 3 14 -1 21 -9 11 -13 62 -15 340 -15 l328 0 7 30 c4 17 13 30
21 30 11 0 11 6 3 27 -11 30 -2 190 11 198 4 2 7 56 6 120 -1 63 1 115 4 115
11 0 30 91 22 106 -8 15 0 122 12 161 6 18 4 22 -8 17 -9 -3 -17 -11 -17 -18
-1 -6 -3 -20 -4 -31 -3 -29 -23 -65 -36 -65 -7 0 -10 -27 -8 -74 2 -41 0 -78
-4 -82 -4 -4 -7 0 -7 9 0 10 -4 17 -10 17 -5 0 -10 -4 -10 -10 0 -5 -4 -10
-10 -10 -5 0 -10 7 -10 16 0 8 -4 13 -9 10 -5 -4 -12 0 -15 6 -3 7 -3 2 0 -10
5 -21 4 -23 -15 -13 -25 14 -25 17 -2 -60 35 -116 37 -165 6 -123 -10 15 -14
15 -42 0 l-31 -15 -5 37 c-12 82 -20 109 -44 157 -19 37 -23 42 -19 20 5 -22
4 -26 -4 -15 -5 8 -10 25 -10 38 0 12 -4 30 -9 40 -5 9 -13 28 -19 42 -8 20
-9 15 -6 -28 3 -35 1 -51 -6 -47 -5 3 -10 16 -11 28 -1 20 -2 20 -9 -3 l-8
-25 -1 27 c-1 14 -4 33 -7 42 -3 9 -1 16 4 16 6 0 13 -8 16 -18 3 -10 4 -6 3
8 -2 20 -7 25 -27 25 -27 0 -52 26 -32 33 17 5 15 22 -3 22 -8 0 -15 -7 -15
-16 0 -8 -4 -13 -9 -9 -5 3 -12 -3 -14 -12 -3 -10 -6 -2 -7 17 l-2 35 -8 -30
c-4 -16 -8 -23 -9 -14 -1 16 -27 34 -43 31 -5 -1 -8 9 -8 23 0 14 -4 25 -10
25 -5 0 -10 -4 -10 -8 0 -16 -30 -9 -30 7 -1 13 -2 13 -11 -2 -6 -9 -15 -14
-21 -11 -8 5 -9 1 -5 -10 4 -10 5 -22 2 -26 -8 -13 -35 0 -35 16 0 12 -4 12
-20 4 -16 -9 -20 -8 -20 6 0 10 -5 14 -15 10 -10 -3 -15 1 -16 12 0 13 -3 11
-12 -6 -8 -18 -8 -25 3 -32 8 -5 18 -6 22 -4 4 3 5 -2 2 -10 -3 -9 -11 -16
-18 -16 -6 0 -4 -5 4 -11 12 -8 10 -9 -7 -4 -13 3 -23 2 -23 -3 0 -12 29 -24
41 -16 5 3 9 -7 9 -21 0 -14 4 -24 9 -21 4 3 7 17 5 32 l-2 26 20 -22 c17 -19
19 -26 10 -41 -7 -11 -9 -19 -4 -19 10 0 32 -57 24 -65 -3 -3 -12 9 -19 27
-10 24 -16 29 -22 19 -7 -11 -10 -11 -15 0 -3 8 -4 4 -2 -9 8 -40 -17 -18 -32
29 -7 24 -16 51 -20 59 -3 8 -7 25 -8 37 -2 17 1 21 14 16 14 -4 14 -3 2 5
-18 14 -30 6 -30 -19 0 -10 -4 -19 -8 -19 -5 0 -7 19 -5 41 3 32 1 40 -9 36
-8 -2 -18 6 -25 19 -6 13 -7 24 -2 24 5 0 9 7 9 15 0 8 -4 15 -8 15 -4 0 -8
17 -8 38 0 31 -3 37 -20 34 -11 -2 -15 0 -8 5 6 4 10 25 10 45 0 25 -3 33 -9
25 -5 -7 -7 1 -3 21 4 20 2 31 -4 27 -6 -3 -10 -1 -10 5 0 6 -5 8 -13 4 -9 -6
-9 -5 0 7 10 12 10 18 1 27 -9 9 -9 12 0 12 7 0 12 4 12 10 0 5 -7 7 -16 3
-14 -5 -15 -3 -5 15 8 15 8 22 1 22 -5 0 -10 12 -10 26 0 14 -4 23 -9 20 -8
-6 -7 -33 4 -125 3 -26 0 -34 -15 -38 -18 -5 -17 -6 5 -27 24 -22 24 -22 3
-35 -16 -10 -19 -10 -16 0 5 15 -40 61 -53 54 -4 -3 -11 11 -14 32 -3 21 -8
45 -9 54 -2 9 0 23 5 30 4 7 4 18 0 24 -8 9 -19 103 -20 169 -1 21 -5 27 -16
22 -9 -3 -15 0 -15 10 0 8 6 17 14 20 11 4 12 14 5 45 -5 22 -7 57 -5 77 3 20
5 53 5 74 1 32 4 36 24 31 21 -4 21 -3 -3 11 -18 11 -20 15 -9 16 9 0 23 7 30
16 12 15 11 16 -11 10 -17 -5 -21 -4 -11 2 8 6 10 15 6 22 -5 9 -4 11 4 6 8
-6 10 -1 5 17 -7 30 3 70 16 62 5 -3 7 -12 3 -20 -3 -8 -1 -15 4 -15 5 0 18
37 28 81 14 62 15 86 7 100 -8 13 -8 19 1 23 9 5 9 7 -1 12 -17 8 -5 24 19 24
10 0 19 3 20 8 0 4 2 14 4 22 2 8 11 42 19 75 19 76 19 73 -1 78 -17 4 -17 5
0 6 9 0 17 8 17 16 0 8 5 15 11 15 7 0 9 9 5 24 -3 13 -2 26 3 28 6 2 13 27
17 57 5 40 4 52 -5 47 -6 -4 -11 -3 -11 3 0 5 6 12 13 14 9 4 8 8 -3 17 -13
10 -13 11 3 6 9 -3 17 -1 17 4 0 6 -4 10 -8 10 -4 0 -8 9 -8 20 0 11 6 20 13
20 16 0 16 2 3 34 -5 14 -15 26 -22 26 -20 1 -57 66 -51 89 8 30 24 15 18 -17
-4 -21 -3 -20 8 6 16 42 16 108 1 105 -7 -1 -14 7 -17 18 -5 18 -2 20 16 14
12 -3 29 -7 37 -7 8 -1 21 -8 29 -15 7 -8 20 -12 27 -9 7 3 16 1 19 -4 4 -6
12 -10 18 -10 7 0 1 9 -12 19 -13 10 -21 23 -17 29 4 7 -3 9 -20 6 -22 -4 -25
-2 -20 12 5 14 4 15 -8 5 -18 -15 -36 -6 -36 17 0 12 -3 13 -12 4 -9 -9 -14
-7 -24 6 -10 13 -13 14 -14 3 0 -11 -5 -10 -20 4 -11 10 -20 13 -20 8 0 -14
-73 2 -78 17 -2 5 -7 8 -12 5 -4 -3 -3 6 3 19 7 14 15 20 18 14 4 -6 8 -5 11
3 4 10 11 8 26 -9 14 -16 22 -19 28 -11 4 8 12 2 22 -17 15 -28 15 -28 23 -6
10 27 19 29 12 2 -3 -11 0 -20 6 -20 6 0 11 7 11 17 0 13 4 11 20 -7 16 -18
20 -20 20 -7 0 10 7 17 15 17 8 0 12 -6 9 -14 -3 -7 2 -16 11 -20 9 -3 18 0
21 9 6 15 35 22 33 8 -3 -20 2 -24 15 -14 11 9 18 8 30 -4 14 -15 16 -15 16
-1 0 21 16 20 29 -1 9 -15 12 -15 20 -4 7 11 9 11 13 0 5 -16 70 -21 80 -6 13
21 8 28 -12 17 -17 -9 -20 -8 -20 13 0 13 -7 32 -15 43 -8 10 -14 30 -14 44 0
23 1 23 9 5 8 -18 9 -18 9 -2 1 10 6 15 11 12 6 -3 7 -17 4 -30 -3 -12 -1 -26
5 -29 7 -5 11 6 11 29 0 39 19 40 21 2 0 -21 1 -21 8 -2 8 19 8 19 19 0 10
-18 11 -17 12 13 0 17 -4 32 -10 32 -5 0 -10 8 -10 18 0 15 2 15 10 2 8 -11 9
-9 5 10 -3 14 -7 35 -8 48 -2 26 -12 28 -26 5 -9 -15 -10 -14 -9 9 1 15 6 24
11 21 5 -3 8 0 6 6 -3 7 -8 12 -13 11 -5 -1 -13 5 -18 14 -12 21 -38 20 -38
-1 0 -15 -2 -16 -10 -3 -8 13 -10 13 -10 -2 0 -9 8 -21 17 -27 10 -5 14 -13
10 -18 -5 -4 -13 0 -18 10 -6 9 -14 15 -20 12 -5 -4 -9 2 -10 12 0 10 -3 13
-6 6 -2 -7 -9 -13 -15 -13 -6 0 -8 7 -4 15 5 13 -5 20 -26 16 -5 0 -8 6 -8 14
0 9 6 12 15 9 11 -5 13 -2 9 10 -3 9 -1 16 4 16 6 0 13 -10 15 -22 4 -21 4
-20 6 3 0 17 -5 29 -16 33 -15 6 -13 10 12 31 33 29 39 31 31 9 -3 -8 -2 -12
4 -9 17 10 34 -6 19 -17 -11 -7 -9 -8 4 -4 10 3 25 6 33 6 8 0 14 4 14 9 0 5
-9 7 -20 4 -26 -7 -25 1 4 30 l24 24 10 -21 c10 -20 11 -20 12 4 0 14 7 34 15
44 14 19 15 18 16 -10 1 -28 1 -29 8 -4 4 14 13 24 19 22 7 -1 12 2 12 8 0 5
7 10 15 10 8 0 15 5 15 10 0 19 19 10 19 -10 1 -11 1 -30 1 -42 1 -12 5 -27
10 -33 6 -7 11 -27 14 -45 2 -19 8 -36 15 -38 8 -3 8 3 1 23 -15 40 -13 46 15
35 17 -6 25 -6 25 1 0 10 29 45 31 37 7 -32 8 -51 0 -40 -6 11 -9 10 -15 -3
-3 -9 -6 -24 -6 -33 1 -15 2 -15 13 -2 18 23 53 23 53 0 0 -15 -4 -16 -18 -9
-12 6 -18 6 -18 -1 0 -5 5 -10 10 -10 6 0 10 -5 10 -12 0 -9 -3 -9 -12 0 -7 7
-22 12 -35 12 -16 0 -23 6 -23 20 0 11 -4 20 -8 20 -5 0 -6 -14 -4 -31 4 -28
2 -30 -16 -25 -12 4 -23 2 -28 -6 -4 -6 -2 -14 4 -16 7 -2 12 -8 12 -14 0 -6
-6 -8 -14 -5 -8 3 -17 1 -19 -6 -2 -7 -8 -9 -12 -5 -4 4 -2 14 4 22 7 8 11 23
9 32 -3 16 -4 17 -20 1 -9 -9 -21 -17 -27 -17 -6 0 -11 -4 -11 -10 0 -5 -7 -7
-16 -3 -14 5 -14 2 2 -23 25 -40 27 -42 20 -19 -3 11 -1 27 4 35 5 8 10 10 10
4 0 -5 6 -19 14 -29 12 -16 16 -17 30 -6 14 12 16 11 16 -5 0 -16 2 -17 11 -4
8 11 12 12 16 3 2 -7 11 -13 18 -13 7 0 16 -6 18 -12 2 -7 3 -2 1 12 -1 14 -6
33 -9 43 -6 13 -2 17 15 17 11 0 19 4 16 9 -3 4 6 6 19 3 14 -2 25 -9 25 -14
0 -6 -7 -7 -16 -4 -11 4 -14 1 -9 -13 3 -12 0 -21 -10 -25 -8 -3 -15 -13 -15
-23 0 -11 3 -14 8 -7 4 6 17 13 29 16 19 5 22 2 21 -19 -2 -14 -8 -28 -15 -30
-7 -3 -13 -9 -13 -15 0 -5 5 -6 12 -2 7 5 9 2 5 -8 -3 -9 0 -24 8 -34 7 -10
10 -25 7 -33 -3 -9 -1 -12 6 -7 7 4 13 1 13 -8 3 -29 4 -34 12 -43 5 -4 5 10
1 32 -4 22 -11 43 -17 46 -6 4 -5 26 4 59 11 44 15 49 20 29 3 -13 2 -36 -2
-51 -4 -15 -4 -30 0 -33 13 -8 39 28 44 60 l4 30 2 -33 c0 -19 -6 -40 -14 -49
-9 -9 -13 -23 -10 -34 7 -21 -10 -27 -18 -6 -3 7 -6 7 -6 1 -1 -6 8 -21 19
-34 11 -13 20 -31 20 -41 0 -12 5 -16 15 -13 11 5 15 -1 15 -25 0 -17 1 -31 3
-31 1 0 16 4 34 9 26 7 31 7 26 -5 -3 -8 -11 -14 -19 -14 -8 0 -14 -4 -14 -10
0 -5 6 -10 14 -10 8 0 18 -5 22 -11 6 -10 -10 -8 -53 8 -7 3 -13 0 -13 -6 0
-6 6 -11 13 -11 15 0 16 -165 1 -180 -7 -7 -8 -27 -3 -53 4 -23 5 -45 3 -49
-3 -5 2 -8 10 -8 9 0 16 9 16 20 0 11 4 20 9 20 4 0 6 -12 4 -28 -4 -21 -2
-24 6 -12 10 13 11 13 12 0 0 -8 4 -4 8 9 4 14 12 26 19 27 7 1 8 0 2 -3 -15
-7 -12 -23 5 -23 18 0 17 3 5 -40 -7 -25 -7 -36 3 -43 8 -6 9 -10 1 -13 -6 -3
-10 -15 -9 -27 1 -12 0 -14 -2 -4 -5 21 -10 21 -29 3 -16 -17 -19 -30 -4 -21
6 3 10 -3 10 -14 0 -15 5 -19 16 -14 9 3 20 0 24 -7 10 -17 -10 -39 -30 -33
-11 3 -10 1 3 -10 9 -8 17 -20 17 -26 0 -7 4 -10 10 -6 5 3 6 13 3 22 -4 11
-3 14 5 9 7 -4 12 -15 12 -26 0 -10 7 -21 16 -24 8 -3 12 -10 9 -16 -4 -6 -11
-8 -16 -5 -5 4 -9 1 -9 -4 0 -6 7 -11 16 -11 14 0 14 -3 4 -15 -11 -13 -10
-23 0 -55 7 -22 15 -38 18 -35 3 3 11 -4 19 -15 8 -11 20 -20 26 -20 15 0 59
-71 82 -135 7 -17 9 -15 16 15 5 19 12 58 15 85 5 56 36 162 61 215 42 89 136
374 136 413 0 15 4 27 8 27 5 0 9 15 9 34 0 19 5 38 10 41 8 5 7 11 -1 21 -9
11 -9 14 0 14 8 0 10 8 6 20 -3 10 0 30 7 42 7 13 14 30 15 38 1 8 17 58 36
110 18 52 45 151 61 220 15 69 32 136 37 150 12 31 20 65 26 109 4 26 2 32 -7
26 -8 -5 -11 -4 -6 3 4 6 14 8 24 5 15 -6 15 -4 -2 15 -15 17 -22 19 -38 11
-23 -12 -23 -12 -32 23 -5 23 -3 27 11 22 14 -5 13 -2 -4 13 l-22 18 29 34 29
34 10 -39 c5 -22 13 -51 17 -66 8 -34 20 -36 27 -5 2 12 20 74 40 137 19 63
42 151 51 195 9 44 25 123 35 175 11 52 17 98 12 103 -11 11 -62 -58 -236
-318 -141 -210 -183 -270 -231 -325 -73 -84 -107 -119 -114 -115 -4 2 -15 -4
-25 -15 -10 -11 -30 -20 -45 -20 -21 0 -29 -6 -34 -25 -4 -14 -11 -25 -17 -25
-6 0 -8 4 -4 9 3 5 1 12 -5 16 -5 3 -10 1 -10 -4 0 -24 -19 -9 -30 24 -6 19
-16 33 -21 30 -5 -4 -6 0 -3 8 3 9 -13 30 -42 55 -56 48 -124 88 -124 73 0 -6
-4 -11 -10 -11 -5 0 -7 7 -4 15 4 8 1 15 -5 15 -18 0 -12 -29 9 -40 12 -6 17
-17 14 -28 -5 -13 -4 -14 4 -3 7 9 12 10 16 2 4 -6 2 -11 -4 -11 -6 0 -9 -4
-6 -9 4 -5 -10 -4 -29 2 -19 6 -35 16 -35 24 0 7 -9 13 -20 13 -14 0 -18 5
-13 18 6 15 5 16 -11 2 -11 -8 -14 -16 -7 -18 6 -2 11 -13 11 -25 -1 -20 -3
-20 -25 8 -14 17 -25 26 -25 21 0 -4 -11 -1 -25 8 -29 19 -32 15 -7 -10 15
-15 15 -17 1 -12 -9 4 -23 1 -30 -5 -11 -10 -11 -9 0 6 13 17 6 23 -23 18 -4
-1 -14 3 -21 9 -7 6 -20 8 -29 4 -12 -5 -16 0 -17 17 l-1 24 -7 -24 c-9 -33
-31 -39 -38 -10 -6 23 -7 23 -19 -6 -9 -20 -13 -24 -14 -12 0 17 -1 17 -16 3
-20 -20 -34 -20 -34 -1 0 8 5 15 10 15 6 0 10 5 10 11 0 7 -10 9 -25 5 -14 -4
-25 -2 -25 4 0 21 -20 9 -21 -12 0 -22 -1 -22 -9 -3 -4 11 -4 24 0 29 5 5 6
16 3 25 -4 13 -2 13 7 -1 12 -19 36 -25 24 -7 -4 7 -1 10 7 7 8 -3 19 1 26 8
15 15 17 38 3 29 -5 -3 -10 -1 -10 6 0 27 -36 38 -125 39 -49 0 -123 6 -162
14 -74 14 -98 7 -42 -13 35 -12 31 -31 -5 -24 -17 4 -37 -4 -63 -23 l-38 -28
28 30 c15 17 24 34 20 39 -5 4 -3 5 4 1 8 -4 11 1 10 14 -1 21 -29 36 -47 25
-5 -3 -10 -2 -10 3 0 5 -15 15 -32 23 -18 7 -75 32 -126 56 -50 24 -96 43
-102 43 -6 0 -6 -10 1 -26 8 -22 6 -29 -11 -41 -11 -8 -20 -21 -20 -29 0 -8
-4 -13 -9 -10 -5 4 -12 0 -14 -6 -4 -10 -8 -9 -16 2 -6 8 -11 20 -11 25 0 6 4
4 9 -4 5 -7 11 -9 14 -5 6 11 -12 28 -34 32 -18 2 -33 -23 -24 -39 4 -5 -1 -6
-9 -3 -9 3 -16 1 -16 -5 0 -8 -4 -8 -14 1 -11 11 -11 14 1 23 8 6 13 21 11 33
l-3 22 -33 -20 c-19 -11 -30 -25 -26 -31 4 -8 9 -7 15 2 7 11 9 10 9 -3 0 -10
-5 -18 -11 -18 -15 0 -39 26 -32 34 4 3 2 6 -4 6 -18 0 -23 -13 -10 -28 8 -11
8 -14 0 -9 -6 4 -14 1 -17 -5 -3 -7 -4 1 -1 17 3 17 6 36 7 43 1 9 10 12 24 9
27 -5 43 25 25 46 -7 9 -5 13 7 13 9 1 25 5 35 9 13 5 16 3 11 -8 -3 -8 -1
-18 5 -22 6 -3 11 0 12 7 0 7 2 20 4 28 2 12 -10 15 -59 16 -46 0 -74 7 -114
28 -30 15 -52 30 -49 32 3 3 23 -4 46 -15 47 -25 51 -25 51 -8 0 7 -13 23 -30
35 l-29 22 23 44 c53 100 126 178 193 208 67 29 101 65 143 147 21 42 70 126
109 186 39 61 105 166 147 235 41 69 91 149 109 178 18 30 47 97 63 150 49
155 49 144 0 169 -44 22 -164 41 -154 24 8 -12 -10 -16 -69 -16 l-50 0 -9 52
c-6 34 -15 55 -26 58 -9 3 -46 33 -83 68 -85 79 -87 81 -115 85 -13 2 -60 14
-105 28 -44 13 -101 24 -126 24 -25 0 -84 6 -131 13 -56 8 -123 9 -195 5z
m918 -2086 c-24 -4 -30 -18 -58 -151 -11 -51 -12 -78 -5 -85 10 -10 11 -9 14
29 0 11 10 21 20 23 14 3 17 0 13 -13 -4 -9 1 -28 10 -42 16 -24 17 -24 30 -7
14 19 17 15 7 -10 -7 -18 -34 -22 -34 -4 0 6 -9 3 -20 -7 -13 -12 -18 -25 -14
-41 4 -17 1 -26 -10 -30 -9 -3 -16 -16 -16 -28 1 -20 1 -20 15 -2 7 10 18 15
23 12 11 -7 22 16 22 45 0 12 -5 16 -15 13 -8 -4 -15 -1 -15 5 0 6 11 11 25
11 14 0 25 -4 25 -10 0 -18 18 -11 25 9 3 11 16 23 28 27 l22 8 -24 5 c-22 6
-23 8 -8 23 9 9 18 32 19 51 2 19 8 33 14 30 13 -5 38 42 30 56 -4 6 -3 11 2
11 6 0 13 11 16 25 7 26 20 32 31 14 4 -5 0 -18 -9 -28 -23 -25 -22 -62 2 -54
15 6 15 5 3 -10 -7 -9 -10 -17 -6 -17 4 0 0 -11 -9 -25 -21 -31 -20 -34 4 -28
11 3 20 0 20 -6 0 -6 5 -11 10 -11 6 0 10 7 10 15 0 9 6 12 15 9 11 -5 14 -1
9 12 -5 18 -5 18 6 1 12 -18 5 -41 -10 -32 -4 3 -11 -2 -14 -11 -3 -8 -10 -12
-16 -9 -5 3 -10 1 -10 -4 0 -6 -8 -11 -17 -11 -9 0 -13 -3 -10 -7 4 -3 1 -13
-6 -21 -10 -13 -9 -15 6 -9 22 8 31 -13 45 -103 9 -60 6 -93 -6 -61 -3 10 -9
7 -19 -10 -13 -23 -14 -23 -8 -1 8 27 -2 28 -24 4 -19 -21 -92 -23 -99 -3 -4
11 -6 11 -14 0 -8 -11 -9 -10 -5 3 3 9 -1 22 -9 28 -11 10 -14 9 -15 -6 -1
-11 -1 -22 0 -26 1 -10 -37 -20 -49 -13 -5 3 -10 1 -10 -5 0 -6 -5 -8 -11 -4
-6 3 -16 0 -21 -7 -7 -10 -8 -9 -3 6 12 36 10 39 -23 41 -25 1 -32 -2 -28 -12
3 -8 1 -14 -4 -14 -6 0 -10 9 -10 21 0 11 -4 18 -10 14 -5 -3 -7 -12 -3 -20 6
-18 7 -18 -33 -6 -29 8 -31 7 -26 -15 2 -14 14 -31 26 -40 13 -10 16 -15 6
-13 -39 4 -51 -1 -45 -20 3 -11 1 -22 -4 -25 -14 -9 -2 -36 15 -36 14 0 18 17
15 53 -2 11 5 17 19 17 19 0 21 4 16 26 -5 17 -3 23 4 19 5 -3 9 -19 8 -33 -1
-15 1 -33 5 -39 4 -6 1 -23 -7 -38 -9 -17 -16 -22 -19 -13 -3 7 -5 4 -4 -8 1
-12 7 -21 16 -20 8 1 16 -8 18 -19 1 -15 1 -16 -3 -2 -6 18 -24 24 -24 8 0
-27 15 -41 42 -41 26 0 29 2 18 15 -7 8 -9 15 -6 15 4 0 14 -7 22 -15 10 -10
11 -15 4 -15 -7 0 -10 -6 -7 -14 5 -12 -1 -12 -39 1 -24 8 -44 18 -45 21 -6
58 -14 70 -48 75 -13 2 -30 12 -37 21 -13 18 -52 14 -65 -6 -3 -5 -13 -6 -21
-3 -17 7 -13 43 6 58 7 6 4 7 -6 3 -12 -3 -18 0 -18 9 0 8 -4 15 -8 15 -5 0
-9 14 -9 30 0 20 3 26 9 18 4 -7 8 -21 8 -30 0 -13 8 -18 31 -18 17 0 28 4 24
10 -3 6 -13 10 -21 10 -8 0 -14 6 -14 14 0 17 17 30 22 17 1 -4 14 -12 28 -16
23 -7 24 -7 10 10 -12 14 -12 19 -2 22 6 3 9 9 6 14 -3 6 2 19 11 29 12 13 13
20 4 26 -9 5 -8 10 3 18 21 15 29 104 9 92 -5 -3 -11 5 -13 19 -3 14 -1 25 4
25 4 0 13 11 20 25 6 13 15 22 19 19 8 -5 14 32 10 63 -2 15 33 35 44 25 5 -4
5 1 2 11 -4 10 -3 16 2 12 6 -3 18 8 27 25 10 16 22 30 27 30 5 0 4 -7 -3 -15
-17 -21 -1 -19 22 2 19 17 19 16 16 -12 -2 -17 -6 -32 -9 -35 -13 -10 -21 -70
-9 -70 6 0 13 8 16 18 18 54 37 83 50 78 8 -3 14 -3 14 0 0 2 -9 8 -20 12
l-20 7 20 18 c11 9 20 12 20 6 0 -5 5 -7 10 -4 6 4 8 10 5 14 -2 5 8 6 23 2
25 -5 25 -6 5 -9z m-971 -139 c-7 -13 -6 -22 3 -30 10 -10 14 -9 19 3 3 9 1
12 -4 9 -6 -3 -10 -1 -10 4 0 6 5 11 10 11 6 0 15 10 20 23 7 17 9 18 9 5 1
-11 9 -18 21 -18 11 0 23 -7 27 -16 5 -14 9 -13 25 7 l20 24 -6 -32 c-3 -18
-1 -35 4 -38 6 -3 10 0 10 8 0 8 9 22 20 32 18 16 20 16 20 2 0 -10 5 -17 11
-17 5 0 7 -5 4 -10 -4 -6 -15 -8 -26 -5 -26 9 -24 -10 3 -29 16 -11 18 -16 7
-16 -8 0 -20 5 -26 11 -8 8 -13 8 -17 0 -4 -6 -2 -11 3 -11 6 0 11 -7 11 -17
0 -9 3 -13 7 -10 3 4 12 2 20 -5 15 -12 32 -2 37 23 9 43 36 68 36 33 0 -13 6
-15 28 -10 18 4 22 4 13 -3 -7 -5 -10 -14 -7 -20 4 -6 3 -11 -3 -11 -5 0 -12
6 -15 13 -3 6 -3 2 0 -10 6 -25 -10 -32 -20 -8 -8 21 -19 19 -34 -6 -17 -27
-6 -38 13 -13 13 18 14 17 12 -13 -1 -18 -5 -33 -8 -33 -4 0 -5 -15 -3 -32 1
-18 3 -41 3 -50 1 -10 6 -18 12 -18 6 0 9 7 5 15 -3 8 -1 15 4 15 5 0 11 8 14
18 3 9 4 0 1 -20 -2 -21 1 -40 6 -43 5 -4 9 -10 9 -16 0 -5 -9 -4 -20 3 -25
16 -39 2 -15 -16 14 -10 23 -11 37 -3 14 9 21 8 34 -5 16 -16 16 -19 1 -42
-15 -22 -15 -26 -1 -40 8 -9 11 -16 5 -16 -5 0 -11 -6 -14 -12 -2 -7 -3 -6 -2
3 1 9 -2 23 -7 32 -8 15 -10 15 -27 -1 -17 -16 -17 -18 2 -39 11 -13 17 -26
13 -30 -4 -5 -13 -1 -19 8 -7 9 -23 19 -37 23 -21 6 -22 5 -7 -4 21 -13 23
-34 2 -26 -9 3 -15 0 -15 -10 0 -9 -5 -12 -11 -8 -8 4 -9 0 -4 -15 7 -22 -9
-30 -19 -8 -3 6 -3 1 1 -13 5 -22 4 -23 -11 -11 -14 12 -16 12 -11 0 4 -11 -4
-15 -32 -16 -20 0 -39 -5 -40 -10 -2 -6 -15 -8 -28 -5 -14 2 -32 -1 -40 -8 -8
-7 -15 -8 -15 -3 0 5 -9 9 -20 10 -11 1 -20 -3 -20 -8 0 -6 -8 -8 -19 -4 -27
8 -34 -30 -12 -73 l18 -35 20 23 c21 21 22 21 49 3 22 -14 25 -19 11 -21 -18
-4 -24 -37 -8 -46 5 -4 7 2 4 12 -3 12 4 22 22 30 33 15 35 15 35 -4 0 -11 6
-14 20 -9 22 7 28 -10 8 -19 -7 -3 1 -3 17 0 23 4 27 3 15 -5 -8 -6 -10 -11
-4 -11 6 0 17 7 24 15 7 8 9 15 6 15 -4 0 -2 9 4 20 13 24 40 27 40 4 0 -8 5
-12 10 -9 6 3 10 2 10 -4 0 -6 7 -7 17 -4 11 4 14 3 9 -5 -4 -7 -5 -12 -2 -12
2 0 12 -3 22 -7 12 -5 15 -3 9 6 -6 10 -2 11 16 6 18 -5 20 -4 9 4 -13 9 -13
12 1 23 9 7 19 20 21 28 3 9 7 10 11 3 4 -6 1 -17 -6 -25 -8 -7 -12 -18 -10
-24 2 -6 -9 -22 -24 -35 -15 -13 -33 -35 -40 -49 -6 -14 -12 -19 -12 -12 -1 6
-6 12 -12 12 -5 0 -8 -4 -4 -9 3 -6 -3 -9 -14 -8 -15 1 -17 4 -7 19 6 10 14
18 17 18 4 0 5 9 2 20 -3 11 -9 18 -13 15 -5 -3 -11 1 -13 7 -3 7 -4 -2 -2
-21 3 -25 1 -31 -8 -22 -6 6 -15 11 -21 11 -5 0 -6 -3 -3 -6 3 -4 2 -16 -4
-28 -10 -21 -10 -21 7 -1 17 21 17 17 -3 -32 -4 -11 -3 -14 6 -9 16 10 -39
-86 -78 -137 l-29 -38 -6 36 c-4 20 -4 45 -1 55 4 12 2 20 -4 20 -6 0 -11 -6
-11 -12 0 -10 -3 -9 -9 1 -13 21 -24 -5 -11 -29 7 -13 7 -20 0 -20 -5 0 -10 7
-10 15 0 8 -5 15 -11 15 -7 0 -8 -11 -4 -30 4 -20 3 -30 -5 -30 -7 0 -10 7 -6
15 3 9 0 15 -10 15 -11 0 -12 -4 -5 -19 13 -23 5 -31 -28 -32 -18 -1 -21 -3
-8 -6 18 -5 18 -6 1 -24 -22 -25 -56 -26 -47 -1 4 12 -1 10 -15 -7 -12 -13
-22 -34 -22 -47 0 -13 -4 -26 -10 -29 -6 -4 -10 5 -10 19 0 14 -4 26 -9 26
-13 0 -19 -58 -7 -70 7 -7 5 -10 -7 -10 -9 0 -17 7 -17 15 0 8 -4 15 -10 15
-5 0 -7 -7 -4 -15 4 -8 1 -15 -5 -15 -6 0 -11 -6 -11 -14 0 -8 -5 -18 -12 -22
-8 -5 -9 0 -6 14 4 12 2 25 -3 28 -5 3 -9 -3 -9 -14 0 -10 -11 -24 -25 -30
-16 -7 -23 -17 -19 -26 3 -9 -1 -22 -9 -31 -11 -10 -17 -11 -19 -3 -2 6 -10
-3 -18 -21 -11 -28 -11 -34 1 -41 8 -6 16 -4 21 3 5 8 8 8 8 1 0 -19 -12 -24
-32 -13 -15 8 -18 18 -13 47 5 35 5 36 -6 9 -8 -20 -16 -27 -27 -22 -11 4 -8
-3 8 -20 20 -21 21 -25 6 -19 -15 6 -18 4 -13 -9 3 -9 1 -19 -5 -23 -7 -4 -8
-3 -4 4 4 7 2 12 -3 12 -6 0 -11 -8 -11 -18 0 -23 -35 -57 -72 -71 -16 -6 -28
-16 -28 -23 0 -10 2 -10 8 -1 7 10 12 10 26 0 17 -13 17 -14 -8 -30 -15 -10
-26 -27 -26 -40 0 -12 -4 -17 -8 -12 -13 18 -52 36 -52 24 0 -7 -10 -9 -27 -5
-27 6 -27 6 -8 -9 17 -13 18 -18 7 -36 -7 -11 -10 -30 -7 -42 4 -15 3 -18 -3
-9 -7 11 -14 7 -31 -17 -20 -28 -20 -36 2 -32 4 0 7 -3 7 -9 0 -16 18 -12 23
5 4 11 4 10 3 -2 -1 -11 -10 -18 -23 -17 -14 0 -19 -4 -16 -13 6 -15 -15 -63
-27 -63 -4 0 -5 13 -2 30 2 16 0 30 -6 30 -5 0 -9 -18 -8 -40 1 -40 -15 -61
-20 -27 -4 32 -14 32 -14 1 0 -39 -16 -64 -29 -45 -5 7 -14 10 -20 7 -16 -10
-14 7 4 30 18 24 19 40 2 25 -8 -6 -17 -9 -20 -6 -4 3 -5 2 -3 -1 6 -7 -17
-33 -24 -29 -3 2 -5 -9 -6 -23 0 -15 -4 -40 -9 -56 -6 -21 -5 -27 4 -22 23 14
10 -21 -16 -43 -15 -14 -24 -17 -20 -9 3 8 1 21 -3 29 -12 18 -42 -53 -33 -77
4 -12 3 -15 -5 -10 -7 4 -12 16 -12 27 0 10 -4 19 -9 19 -5 0 -7 10 -4 23 3
16 2 18 -5 8 -8 -11 -11 -10 -14 5 -3 10 -4 -5 -3 -33 2 -29 -1 -50 -5 -48 -5
3 -11 -1 -13 -7 -3 -7 -6 -3 -6 9 -1 12 3 25 9 28 5 3 10 11 10 16 0 6 -5 7
-10 4 -6 -3 -10 -1 -10 4 0 25 -20 9 -21 -16 -1 -21 -2 -23 -6 -8 -3 11 -9 24
-14 29 -14 15 -11 26 6 20 26 -10 19 52 -7 70 -12 9 -27 16 -33 16 -6 0 -5 -4
2 -8 8 -5 8 -13 -3 -32 l-14 -25 6 29 c6 23 4 27 -7 21 -11 -6 -12 -5 -1 6 6
7 12 21 12 32 0 11 4 15 12 11 7 -4 8 -3 4 5 -4 6 -2 18 4 27 10 12 16 12 29
2 14 -12 14 -11 2 4 -7 10 -11 27 -8 37 3 11 -1 22 -9 25 -15 6 -36 -26 -33
-52 2 -29 -1 -42 -10 -42 -12 0 -5 68 9 85 7 8 8 20 4 26 -4 8 -3 9 4 5 8 -5
12 1 12 17 0 14 6 30 14 37 11 9 12 17 4 34 -11 26 4 68 23 63 6 -1 15 8 19
19 7 18 5 21 -11 17 -20 -6 -27 11 -9 22 6 3 10 22 10 42 0 27 3 34 15 29 12
-4 14 0 11 19 -3 15 -1 23 5 19 6 -3 7 10 3 34 -4 23 -2 42 4 46 6 4 9 -4 7
-20 -3 -32 11 -18 21 20 5 21 4 27 -5 22 -6 -4 -11 -2 -11 3 0 6 5 11 10 11 6
0 10 9 10 20 0 34 21 69 39 63 11 -3 12 -2 4 4 -7 5 -10 19 -6 33 6 22 7 23
14 4 6 -16 8 -14 15 14 5 24 9 30 15 20 7 -10 11 -7 15 10 5 18 9 20 15 10 6
-9 8 -6 6 10 -1 25 -8 27 -25 10 -9 -9 -12 -9 -12 0 0 7 7 15 15 18 13 5 13 9
3 22 -11 13 -10 15 5 9 11 -4 16 -3 12 3 -3 6 -3 15 1 22 5 8 10 6 15 -8 7
-17 8 -17 8 -1 1 10 -6 28 -14 40 -13 20 -12 27 12 76 23 45 28 51 35 35 6
-15 7 -13 3 7 -2 15 3 35 13 49 9 14 23 36 30 50 7 14 10 17 7 8 -2 -10 0 -18
5 -18 10 0 11 5 14 58 2 40 28 90 49 96 11 2 16 9 13 15 -3 5 0 16 8 24 8 8
12 17 9 21 -3 3 -12 -2 -19 -12 -7 -9 -14 -12 -14 -7 0 18 58 66 63 53 3 -8 6
-5 6 6 1 21 50 68 63 60 5 -3 7 0 6 8 -2 7 2 12 9 11 7 -2 10 4 7 12 -5 11 -2
13 12 8 12 -4 15 -3 10 5 -4 7 -2 12 3 12 6 0 11 7 11 15 0 8 7 15 16 15 8 0
13 4 10 8 -2 4 4 9 15 9 11 1 17 -3 13 -9 -4 -6 2 -6 15 1 24 13 28 23 6 15
-11 -5 -13 -2 -9 10 3 9 12 16 20 16 8 0 14 5 14 11 0 5 5 7 12 3 7 -5 9 -2 6
7 -3 8 11 36 32 62 34 42 39 45 42 25 3 -21 4 -21 20 -5 10 10 15 25 11 35 -3
9 -3 14 2 10 9 -9 35 9 35 24 0 5 -6 6 -12 2 -8 -4 -10 -3 -5 2 12 12 30 12
39 -1 5 -6 8 -5 8 3 0 22 25 41 41 31 11 -7 11 -9 1 -9 -7 0 -10 -5 -7 -10 5
-8 11 -7 21 1 15 12 20 44 5 35 -5 -3 -14 1 -21 9 -10 12 -9 15 4 15 9 0 16 4
16 9 0 5 10 8 23 6 17 -4 27 3 42 27 19 33 34 24 17 -9z m-89 -1385 c-14 -19
-167 -211 -178 -224 -5 -7 -86 -92 -180 -189 -93 -97 -189 -207 -214 -244 -51
-77 -65 -95 -55 -66 14 35 88 150 106 163 10 7 18 19 18 25 0 7 -4 6 -10 -3
-11 -17 -15 -14 -24 20 -4 14 -4 20 1 14 16 -23 48 -25 61 -4 10 17 10 23 -3
36 -8 9 -15 20 -15 25 0 6 7 4 15 -4 26 -27 97 6 72 33 -9 10 -9 11 1 5 8 -4
21 0 32 10 17 15 17 19 5 32 -8 8 -15 19 -15 26 0 6 6 3 13 -7 17 -23 51 -11
44 15 -3 11 -1 19 4 19 5 0 9 -8 9 -17 0 -15 4 -13 20 7 10 14 15 27 10 28 -6
2 -10 11 -9 20 0 11 2 12 6 5 6 -16 33 -17 33 -2 0 5 5 7 10 4 10 -6 15 9 10
30 -1 5 2 7 6 3 4 -5 15 6 25 22 11 17 23 30 29 30 5 0 10 8 10 17 0 9 3 13 7
10 3 -4 15 5 25 20 10 16 18 24 18 18 0 -5 7 2 17 15 41 62 88 120 96 120 6 0
6 -5 0 -12z m-107 -183 c-3 -8 -1 -15 4 -15 6 0 10 5 10 11 0 5 5 7 10 4 6 -3
10 -11 10 -16 0 -6 -4 -7 -10 -4 -5 3 -10 -3 -10 -14 0 -10 -4 -21 -9 -23 -4
-1 -11 -14 -15 -28 -5 -18 0 -14 19 15 l26 40 -2 -40 c-2 -27 1 -39 9 -37 10
2 9 -2 0 -18 -8 -13 -15 -16 -19 -8 -6 9 -12 8 -23 -1 -25 -21 -19 -30 14 -26
18 2 43 17 59 34 16 17 32 31 36 31 5 0 -3 -11 -16 -24 -36 -36 -49 -54 -49
-67 0 -7 -2 -10 -5 -7 -3 3 -31 -20 -61 -51 -31 -31 -53 -47 -50 -37 6 16 4
17 -9 6 -9 -7 -14 -19 -11 -27 3 -8 2 -12 -3 -9 -5 3 -11 -1 -15 -9 -3 -8 -12
-15 -21 -15 -8 0 -14 -3 -14 -7 3 -20 -2 -26 -11 -13 -8 12 -10 11 -10 -7 0
-14 -6 -23 -16 -23 -8 0 -13 -4 -10 -9 7 -11 -22 -23 -35 -15 -5 3 -9 -4 -9
-15 0 -14 -5 -19 -16 -14 -10 4 -17 -1 -21 -16 -6 -24 -14 -26 -31 -9 -15 15
-16 31 0 22 8 -5 9 -2 5 10 -4 9 -3 14 2 11 17 -10 23 34 7 51 -18 17 -20 30
-7 38 5 3 8 -2 7 -12 -1 -12 5 -16 22 -15 13 2 25 -4 28 -12 4 -8 12 -15 20
-15 21 0 17 17 -6 23 -20 5 -28 27 -10 27 6 0 10 14 10 30 0 35 -4 37 -32 10
-30 -27 -34 -18 -6 12 30 31 60 26 52 -8 -3 -13 -3 -24 2 -24 12 0 94 93 94
108 0 7 5 10 10 7 6 -3 10 -1 10 6 0 7 3 10 6 7 8 -9 44 30 44 48 0 8 5 12 11
9 6 -4 10 -1 8 6 -4 32 2 59 17 74 12 11 14 19 6 27 -10 10 -6 38 5 38 3 0 3
-7 -1 -15z m-522 -955 c-9 -16 -19 -28 -24 -25 -4 2 -11 -10 -15 -28 -7 -31
-8 -31 -14 -8 -4 14 -12 26 -18 28 -7 3 -9 -3 -6 -15 2 -11 -3 -32 -13 -47
-15 -23 -15 -28 -3 -36 11 -7 10 -9 -5 -9 -13 0 -17 -5 -13 -19 6 -23 -9 -51
-28 -51 -14 0 -15 16 -2 37 4 7 6 31 5 55 -2 32 -11 50 -34 74 l-32 31 30 17
c27 17 31 17 54 1 24 -15 50 -13 29 3 -6 4 -11 13 -12 20 -3 14 23 16 32 2 3
-5 16 -10 28 -9 12 0 16 3 10 6 -20 7 -15 23 10 32 30 12 41 -18 21 -59z
m-164 -61 c0 -6 -4 -7 -10 -4 -14 9 -12 -9 3 -24 10 -10 8 -12 -8 -9 -11 2
-24 -2 -30 -9 -5 -7 -19 -14 -30 -16 -11 -2 -30 -9 -42 -15 -20 -11 -23 -10
-23 5 -1 17 -1 17 -11 1 -5 -10 -19 -18 -29 -18 -11 0 -20 -7 -20 -16 0 -8 4
-13 9 -10 5 3 11 -5 13 -19 4 -17 1 -25 -8 -25 -8 0 -14 5 -14 12 0 6 -2 9 -5
6 -3 -3 -2 -24 4 -47 8 -36 7 -41 -9 -41 -13 0 -17 5 -13 21 5 16 1 20 -13 19
-32 -4 -37 -1 -24 15 7 8 9 15 5 15 -4 0 -14 -8 -22 -17 -13 -16 -14 -14 -8
18 6 40 -9 94 -25 84 -12 -8 -80 21 -80 34 0 6 20 11 45 11 36 0 45 -3 45 -17
1 -17 1 -17 11 0 6 9 14 15 19 12 5 -3 41 0 80 6 51 9 77 9 94 1 20 -9 25 -8
30 5 4 9 9 13 13 9 3 -3 13 3 20 14 14 20 33 19 33 -1z"/>
<path d="M2505 5003 c-17 -65 -58 -189 -69 -214 -6 -14 19 -25 156 -68 204
-65 207 -67 298 -111 133 -66 251 -113 260 -104 4 5 30 69 56 142 36 102 45
138 37 150 -5 10 -14 17 -19 18 -5 0 -27 8 -49 18 -39 18 -85 38 -250 110 -66
29 -364 116 -395 116 -5 0 -16 -26 -25 -57z"/>
<path d="M2650 3550 c11 -9 18 -19 15 -21 -2 -3 -6 -18 -9 -34 -5 -27 -4 -28
8 -12 10 13 15 15 19 5 2 -7 7 -10 11 -7 4 4 0 14 -9 23 -22 22 -3 20 21 -2
20 -19 47 -32 79 -38 66 -13 113 -23 131 -29 25 -8 49 17 39 42 -6 16 -8 16
-15 -3 -5 -12 -14 -25 -20 -29 -7 -5 -7 0 2 14 9 15 10 23 1 32 -8 8 -13 6
-18 -10 -3 -12 -10 -21 -15 -21 -5 0 -7 8 -3 18 6 15 3 14 -17 -3 -20 -17 -23
-18 -17 -2 7 20 3 21 -24 7 -15 -8 -19 -7 -19 4 0 8 5 18 10 21 15 9 12 22 -5
29 -9 3 -15 1 -14 -7 3 -24 -1 -37 -12 -37 -7 0 -9 11 -6 29 6 26 3 30 -22 36
-15 3 -40 1 -55 -5 -15 -5 -33 -7 -39 -3 -7 4 -3 9 9 14 14 5 11 7 -13 6 -32
0 -32 0 -13 -17z"/>
<path d="M3633 858 c-20 -22 -21 -34 -20 -210 0 -104 2 -188 3 -188 4 0 32 62
38 85 23 89 28 335 7 335 -4 0 -17 -10 -28 -22z"/>
</g>
</svg>
